<svg id="svg" version="1.1" xmlns="http://www.w3.org/2000/svg" xmlns:xlink="http://www.w3.org/1999/xlink" width="400" height="360.8810572687225" viewBox="0, 0, 400,360.8810572687225"><g id="svgg"><path id="path0" d="M143.085 67.225 C 143.086 67.370,143.490 76.687,143.984 87.930 C 144.477 99.172,145.077 112.843,145.317 118.309 C 145.556 123.776,145.846 128.342,145.961 128.457 C 146.186 128.683,170.229 131.563,170.405 131.385 C 170.464 131.326,172.435 126.123,174.786 119.824 C 177.136 113.524,179.286 107.783,179.564 107.066 L 180.069 105.762 173.492 98.784 C 148.691 72.473,143.082 66.651,143.085 67.225 M239.102 84.594 C 230.177 93.988,222.028 102.584,220.994 103.696 L 219.113 105.718 223.951 118.498 C 226.611 125.527,228.839 131.329,228.900 131.393 C 229.002 131.498,249.050 129.236,252.007 128.785 L 253.266 128.594 253.677 117.953 C 253.904 112.101,254.415 99.079,254.815 89.016 C 255.214 78.953,255.493 69.999,255.435 69.117 L 255.330 67.514 239.102 84.594 M65.551 145.345 C 65.551 145.485,98.748 176.852,102.379 180.142 L 104.141 181.739 117.004 176.892 C 125.591 173.657,129.905 171.864,129.979 171.500 C 130.073 171.040,127.971 152.655,127.372 148.684 L 127.179 147.411 120.594 147.179 C 116.972 147.051,110.203 146.788,105.551 146.594 C 80.096 145.534,65.551 145.079,65.551 145.345 M311.718 146.628 C 290.588 147.204,272.242 147.760,272.159 147.828 C 272.025 147.938,269.274 171.771,269.383 171.879 C 269.435 171.931,275.332 174.191,282.487 176.900 L 295.497 181.827 296.559 180.850 C 297.143 180.312,299.604 178.049,302.026 175.820 C 309.523 168.924,331.386 148.680,332.681 147.435 L 333.909 146.256 327.571 146.312 C 324.085 146.343,316.952 146.485,311.718 146.628 M101.321 223.000 C 99.964 224.306,91.360 232.411,82.202 241.011 C 73.044 249.612,65.551 256.726,65.551 256.822 C 65.551 256.917,67.731 256.894,70.396 256.769 C 73.062 256.645,82.537 256.306,91.454 256.016 C 115.574 255.232,126.984 254.808,127.101 254.691 C 127.274 254.517,130.134 230.808,129.996 230.687 C 129.903 230.605,110.068 222.987,104.317 220.824 C 103.980 220.697,102.894 221.486,101.321 223.000 M282.115 225.525 L 269.427 230.380 269.510 231.401 C 269.941 236.722,272.212 254.671,272.475 254.834 C 272.661 254.949,276.413 255.146,280.812 255.271 C 290.787 255.556,318.723 256.462,327.313 256.779 C 330.850 256.910,333.744 256.933,333.744 256.831 C 333.744 256.728,327.203 250.477,319.207 242.939 C 299.212 224.089,295.454 220.613,295.104 220.644 C 294.938 220.659,289.093 222.855,282.115 225.525 M157.181 272.374 L 145.727 273.658 145.499 279.649 C 145.374 282.943,144.939 295.709,144.534 308.018 C 144.128 320.326,143.750 331.469,143.693 332.779 C 143.636 334.090,143.707 335.121,143.852 335.070 C 144.137 334.970,173.214 304.387,177.497 299.682 L 180.112 296.809 175.237 283.999 C 170.705 272.093,170.301 271.186,169.498 271.140 C 169.023 271.112,163.480 271.668,157.181 272.374 M227.806 273.568 C 227.269 274.974,225.059 280.797,222.896 286.510 L 218.962 296.897 223.560 301.841 C 226.089 304.560,234.193 313.193,241.568 321.027 L 254.978 335.270 255.086 333.186 C 255.177 331.437,254.300 302.937,253.444 279.829 L 253.216 273.667 241.586 272.360 C 235.189 271.641,229.692 271.044,229.370 271.033 C 228.961 271.019,228.489 271.784,227.806 273.568 " stroke="none" fill="#1d3494" fill-rule="evenodd"></path><path id="path1" d="M183.290 17.120 C 179.527 17.395,176.418 17.660,176.381 17.708 C 176.226 17.915,178.178 45.432,178.361 45.615 C 178.471 45.725,179.775 45.713,181.257 45.588 L 183.952 45.360 183.696 41.623 C 183.556 39.567,183.440 37.093,183.438 36.123 L 183.436 34.361 187.137 34.108 C 193.156 33.695,193.862 34.223,194.325 39.471 C 194.687 43.579,195.123 44.872,196.058 44.621 C 196.482 44.508,197.899 44.413,199.207 44.410 C 201.706 44.405,202.071 44.116,201.033 42.969 C 200.668 42.565,200.365 41.133,200.140 38.735 C 199.730 34.383,198.946 32.365,197.398 31.680 C 196.046 31.081,196.040 30.966,197.326 30.206 C 200.000 28.627,200.633 23.565,198.573 20.233 C 196.456 16.808,194.108 16.330,183.290 17.120 M215.964 30.578 C 212.339 37.505,209.276 43.430,209.158 43.745 C 208.930 44.357,209.369 44.492,213.109 44.965 L 214.941 45.196 216.270 42.510 C 217.070 40.894,217.814 39.827,218.139 39.832 C 219.038 39.845,227.724 41.175,227.871 41.321 C 227.946 41.396,228.199 42.692,228.433 44.200 C 228.922 47.342,228.938 47.355,232.705 47.759 C 234.616 47.963,235.066 47.917,235.066 47.518 C 235.066 46.952,229.484 18.969,229.343 18.831 C 229.217 18.705,223.880 17.972,223.146 17.979 C 222.729 17.983,220.617 21.688,215.964 30.578 M192.742 22.477 C 194.565 23.838,194.560 26.915,192.732 28.279 C 191.861 28.930,183.527 29.989,183.049 29.510 C 182.958 29.419,182.787 27.749,182.668 25.799 L 182.452 22.254 183.649 22.051 C 187.619 21.379,191.515 21.561,192.742 22.477 M247.740 36.869 C 245.131 43.966,242.956 49.874,242.907 49.998 C 242.858 50.122,243.989 50.645,245.420 51.160 L 248.023 52.096 250.752 44.638 C 254.795 33.593,254.861 33.422,254.987 33.548 C 255.051 33.612,255.918 38.500,256.912 44.409 C 257.907 50.319,258.790 55.392,258.874 55.683 C 258.996 56.106,264.320 58.350,264.498 58.054 C 264.642 57.816,273.811 32.522,273.901 32.115 C 274.016 31.600,269.418 29.671,269.021 30.068 C 268.903 30.186,267.333 34.293,265.532 39.194 C 263.731 44.096,262.176 47.868,262.076 47.577 C 261.976 47.286,261.159 42.529,260.261 37.004 C 259.363 31.480,258.555 26.702,258.467 26.387 C 258.325 25.882,253.867 23.958,252.850 23.963 C 252.650 23.964,250.350 29.772,247.740 36.869 M226.082 30.465 C 226.577 33.533,226.937 36.069,226.883 36.102 C 226.829 36.134,225.228 35.914,223.326 35.613 L 219.869 35.066 222.425 29.876 C 223.830 27.022,225.026 24.732,225.081 24.787 C 225.136 24.843,225.587 27.398,226.082 30.465 M127.931 30.889 C 126.673 31.375,125.591 31.825,125.527 31.888 C 125.412 32.004,135.246 57.830,135.503 58.087 C 135.656 58.241,153.331 51.485,153.755 51.111 C 154.094 50.812,152.620 46.856,152.096 46.661 C 151.888 46.584,148.899 47.615,145.453 48.952 L 139.187 51.384 138.737 50.274 C 138.489 49.663,136.631 44.841,134.607 39.559 C 132.584 34.278,130.769 29.967,130.574 29.980 C 130.380 29.994,129.190 30.403,127.931 30.889 M290.086 42.707 C 283.048 43.806,276.490 52.527,277.113 59.958 C 277.711 67.095,285.423 72.992,291.423 70.900 C 292.707 70.453,292.684 70.374,291.846 72.329 L 291.182 73.880 292.754 74.874 C 294.732 76.126,293.973 76.989,301.778 64.610 L 302.705 63.140 297.947 60.116 C 292.347 56.557,292.861 56.662,291.490 58.797 C 290.095 60.972,289.971 60.665,293.048 62.647 L 295.699 64.356 294.893 65.113 C 290.223 69.500,281.746 64.856,282.820 58.500 C 283.427 54.907,286.857 50.092,289.837 48.649 C 294.668 46.311,300.580 49.949,300.212 55.034 C 300.117 56.359,300.191 56.461,302.215 57.807 C 304.809 59.532,305.073 59.538,305.532 57.885 C 307.759 49.868,299.047 41.307,290.086 42.707 M101.656 44.808 C 100.115 45.791,98.831 46.619,98.802 46.646 C 98.590 46.848,105.336 75.581,105.585 75.533 C 105.760 75.499,106.949 74.815,108.228 74.012 L 110.553 72.553 109.905 69.845 C 109.548 68.355,109.256 66.978,109.256 66.784 C 109.256 66.457,117.382 61.248,117.893 61.248 C 118.019 61.247,119.136 62.070,120.376 63.076 L 122.629 64.904 125.300 63.240 C 126.769 62.324,127.843 61.458,127.686 61.314 C 127.309 60.969,107.320 45.194,105.709 43.970 L 104.457 43.019 101.656 44.808 M110.065 54.442 C 112.960 56.881,113.722 57.699,113.386 58.006 C 113.147 58.226,111.806 59.135,110.406 60.026 L 107.861 61.647 107.518 60.339 C 107.330 59.619,106.763 57.366,106.258 55.330 C 105.754 53.295,105.252 51.331,105.143 50.966 C 104.888 50.112,105.123 50.277,110.065 54.442 M78.851 61.501 L 76.469 63.721 78.587 69.798 C 79.752 73.141,80.705 75.996,80.705 76.144 C 80.705 76.291,78.048 75.398,74.802 74.159 C 71.555 72.921,68.656 71.905,68.360 71.901 C 67.701 71.893,63.245 76.320,63.665 76.566 C 63.830 76.663,68.009 77.970,72.952 79.472 L 81.938 82.202 85.900 86.114 L 89.862 90.026 91.803 88.109 C 94.192 85.749,94.379 86.458,90.198 82.019 L 86.652 78.254 84.001 68.819 C 82.543 63.629,81.324 59.360,81.292 59.332 C 81.260 59.304,80.161 60.280,78.851 61.501 M311.806 72.399 L 302.026 82.408 309.691 89.833 L 317.357 97.258 319.119 95.481 L 320.881 93.703 315.242 88.287 L 309.604 82.872 312.061 80.378 C 315.130 77.266,314.413 77.067,319.903 82.546 L 324.573 87.206 326.344 85.462 L 328.114 83.718 323.273 78.867 L 318.431 74.016 320.349 72.074 C 322.795 69.597,322.129 69.325,328.093 75.242 L 333.244 80.351 334.992 78.555 L 336.740 76.759 329.347 69.569 C 325.282 65.614,321.872 62.382,321.770 62.385 C 321.669 62.388,317.185 66.895,311.806 72.399 M200.529 131.262 L 200.529 198.500 214.537 184.737 C 222.242 177.167,230.596 168.912,233.101 166.390 L 237.655 161.807 219.220 113.062 C 209.082 86.252,200.728 64.251,200.657 64.170 C 200.587 64.090,200.529 94.281,200.529 131.262 M334.746 96.636 L 323.237 104.423 324.829 106.818 L 326.422 109.213 330.626 106.396 C 332.938 104.847,335.034 103.501,335.283 103.406 C 335.744 103.229,339.445 108.441,340.121 110.219 C 340.700 111.742,339.912 112.917,336.791 115.187 C 332.268 118.478,332.394 118.115,334.643 121.387 L 336.558 124.174 336.931 123.105 C 337.183 122.382,338.191 121.401,340.051 120.070 C 343.849 117.351,345.022 115.950,345.022 114.135 C 345.022 112.907,345.111 112.736,345.639 112.952 C 352.056 115.576,358.492 109.190,355.836 102.833 C 355.202 101.314,346.873 88.803,346.515 88.830 C 346.372 88.841,341.076 92.354,334.746 96.636 M54.601 91.055 C 44.083 93.890,40.959 106.856,48.999 114.300 C 58.723 123.303,71.680 119.706,73.713 107.439 C 75.193 98.506,63.654 88.614,54.601 91.055 M348.316 99.899 C 351.183 104.264,351.422 105.480,349.744 107.158 C 347.163 109.740,345.310 108.974,341.959 103.941 L 339.612 100.417 340.452 99.812 C 342.651 98.228,345.569 96.251,345.727 96.238 C 345.824 96.230,346.989 97.878,348.316 99.899 M61.248 97.640 C 67.669 100.849,70.143 106.384,67.109 110.751 C 64.219 114.911,58.906 114.774,53.371 110.397 C 45.230 103.959,51.989 93.013,61.248 97.640 M177.975 97.467 C 175.747 97.939,173.796 98.368,173.640 98.419 C 173.485 98.471,174.815 100.067,176.596 101.965 C 178.378 103.863,179.959 105.288,180.111 105.131 C 180.417 104.816,183.260 97.355,183.260 96.869 C 183.260 96.424,182.481 96.512,177.975 97.467 M216.769 99.425 C 217.376 101.050,218.108 103.053,218.397 103.877 C 219.058 105.766,218.802 105.887,222.652 101.863 L 225.921 98.447 222.300 97.688 C 220.308 97.270,218.001 96.825,217.172 96.699 L 215.666 96.471 216.769 99.425 M253.965 114.100 C 253.465 123.159,253.334 128.635,253.616 128.639 C 254.370 128.649,273.362 126.433,273.833 126.280 C 275.221 125.828,261.257 114.420,254.576 110.547 C 254.290 110.382,254.113 111.409,253.965 114.100 M140.617 113.175 C 134.202 117.492,124.692 125.592,125.361 126.169 C 125.514 126.301,129.524 126.841,134.273 127.370 C 139.022 127.898,143.523 128.423,144.276 128.535 L 145.645 128.740 145.413 122.255 C 145.137 114.532,144.845 110.656,144.540 110.673 C 144.417 110.680,142.652 111.805,140.617 113.175 M359.051 123.524 C 354.375 125.242,353.510 127.973,354.878 136.692 C 355.615 141.392,355.540 142.705,354.479 143.665 C 350.733 147.055,345.280 137.778,348.757 133.929 L 350.024 132.526 349.053 130.052 C 347.938 127.210,348.031 127.258,346.220 128.583 C 338.816 134.001,343.808 149.780,352.927 149.780 C 359.697 149.780,361.918 145.764,360.381 136.303 C 359.590 131.430,359.641 129.986,360.639 129.048 C 364.333 125.578,369.351 134.207,365.739 137.819 L 364.703 138.856 365.699 141.318 C 366.864 144.194,366.977 144.230,369.064 142.392 C 376.888 135.506,368.656 119.993,359.051 123.524 M34.133 124.411 C 31.732 125.680,30.649 127.450,27.555 135.167 C 25.943 139.187,24.754 142.589,24.912 142.728 C 25.291 143.061,50.117 152.953,50.574 152.952 C 50.895 152.952,53.010 148.043,52.784 147.824 C 52.731 147.773,50.435 146.830,47.682 145.730 L 42.677 143.729 43.394 141.909 C 46.442 134.168,46.669 134.015,52.224 135.976 C 57.146 137.713,56.956 137.765,58.358 134.293 C 59.019 132.657,59.559 131.267,59.559 131.205 C 59.559 131.144,58.965 131.187,58.238 131.302 C 57.239 131.459,56.228 131.240,54.097 130.405 C 50.220 128.885,47.858 128.647,46.514 129.640 C 45.194 130.616,45.238 130.635,44.972 128.971 C 44.331 124.961,38.074 122.329,34.133 124.411 M121.819 129.347 C 117.382 134.063,108.474 145.948,108.990 146.464 C 109.179 146.653,126.949 147.353,127.124 147.178 C 127.291 147.012,124.850 126.847,124.637 126.634 C 124.562 126.559,123.293 127.780,121.819 129.347 M274.395 127.577 C 274.031 129.666,272.028 147.388,272.143 147.503 C 272.202 147.562,276.431 147.504,281.539 147.374 L 290.828 147.137 288.029 142.907 C 284.811 138.046,280.688 132.794,277.101 128.987 L 274.610 126.344 274.395 127.577 M40.364 130.760 C 41.654 131.972,41.512 133.762,39.787 138.062 C 38.989 140.048,38.156 141.675,37.935 141.676 C 37.452 141.678,32.013 139.554,31.615 139.209 C 31.181 138.831,34.207 131.528,35.216 130.519 C 36.380 129.355,38.999 129.478,40.364 130.760 M112.289 181.531 C 85.951 191.578,64.317 199.883,64.213 199.987 C 64.109 200.091,93.960 200.176,130.549 200.176 L 197.075 200.176 179.028 181.938 C 169.102 171.907,160.800 163.602,160.579 163.483 C 160.357 163.363,138.627 171.484,112.289 181.531 M96.754 175.815 C 96.360 177.058,94.889 184.838,95.020 184.988 C 95.089 185.066,97.134 184.370,99.565 183.441 C 101.995 182.512,103.940 181.732,103.886 181.707 C 103.833 181.682,102.258 180.183,100.386 178.376 C 97.387 175.480,96.957 175.176,96.754 175.815 M298.886 178.863 L 295.677 181.865 296.649 182.240 C 301.785 184.218,303.957 184.971,304.103 184.825 C 304.349 184.579,302.707 176.238,302.372 176.031 C 302.220 175.937,300.652 177.211,298.886 178.863 M202.291 202.204 C 202.291 202.350,210.577 210.736,220.705 220.839 L 239.119 239.209 287.463 220.835 C 314.052 210.729,335.925 202.343,336.068 202.199 C 336.212 202.056,306.170 201.938,269.310 201.938 C 232.449 201.938,202.291 202.058,202.291 202.204 M179.874 222.288 L 161.511 240.897 179.878 289.233 C 189.980 315.818,198.363 337.687,198.506 337.830 C 198.811 338.136,198.768 239.508,198.453 218.227 L 198.238 203.680 179.874 222.288 M95.521 220.585 C 95.856 222.444,96.315 224.643,96.540 225.472 L 96.949 226.980 100.281 223.904 C 102.113 222.212,103.493 220.723,103.348 220.594 C 103.203 220.466,101.245 219.651,98.997 218.783 L 94.911 217.206 95.521 220.585 M300.088 218.744 C 297.956 219.564,296.053 220.300,295.859 220.379 C 295.665 220.459,297.013 221.953,298.855 223.698 C 302.704 227.348,302.322 227.493,303.453 221.945 C 304.495 216.831,304.659 216.987,300.088 218.744 M117.727 255.220 C 112.988 255.391,109.050 255.591,108.975 255.665 C 108.772 255.868,113.892 263.445,116.131 266.256 C 123.451 275.442,130.885 282.373,140.160 288.660 L 144.812 291.814 144.988 290.665 C 145.085 290.033,145.260 285.987,145.378 281.674 L 145.593 273.833 144.426 273.837 C 143.785 273.839,139.148 274.313,134.122 274.890 C 129.096 275.467,124.923 275.877,124.848 275.802 C 124.773 275.728,125.277 271.075,125.968 265.464 C 127.428 253.611,127.337 254.788,126.784 254.856 C 126.542 254.886,122.466 255.050,117.727 255.220 M272.192 256.091 C 272.298 256.642,272.801 260.978,273.311 265.727 C 274.514 276.937,274.123 276.323,277.673 272.574 C 281.830 268.182,290.847 256.111,290.304 255.664 C 290.258 255.626,286.121 255.481,281.110 255.342 L 272.000 255.089 272.192 256.091 M253.605 282.203 C 253.918 293.050,253.512 292.382,257.991 289.417 C 264.069 285.394,275.442 275.947,274.208 275.947 C 274.032 275.947,269.661 275.471,264.493 274.890 C 259.326 274.308,254.708 273.833,254.231 273.833 L 253.364 273.833 253.605 282.203 M176.936 300.421 L 173.638 303.733 175.013 304.094 C 175.769 304.292,177.736 304.708,179.383 305.019 C 181.031 305.329,182.642 305.637,182.964 305.702 C 183.584 305.828,183.697 306.206,181.003 299.127 L 180.234 297.109 176.936 300.421 M217.547 300.662 C 215.537 305.858,215.535 305.869,216.285 305.715 C 216.632 305.644,218.661 305.248,220.793 304.834 C 225.729 303.875,225.648 304.166,222.046 300.309 L 218.961 297.006 217.547 300.662 " stroke="none" fill="#fbea04" fill-rule="evenodd"></path><path id="path2" d="M185.903 53.395 C 66.732 64.952,9.305 204.691,85.976 296.550 C 156.724 381.314,293.729 360.485,336.516 258.461 C 379.630 155.658,296.635 42.657,185.903 53.395 M207.611 75.307 L 215.570 96.341 220.472 97.334 C 223.168 97.880,225.555 98.287,225.775 98.238 C 225.995 98.190,232.735 91.257,240.753 82.832 L 255.330 67.515 255.439 69.005 C 255.499 69.824,255.221 78.858,254.822 89.080 C 254.423 99.302,254.096 108.231,254.097 108.923 C 254.097 110.140,254.241 110.278,258.590 113.216 C 270.427 121.213,280.821 131.769,288.458 143.550 L 290.925 147.355 293.392 147.164 C 296.759 146.903,332.801 146.117,333.329 146.293 C 333.561 146.371,326.687 152.992,318.053 161.006 C 305.607 172.559,302.397 175.715,302.563 176.235 C 302.677 176.597,303.131 178.750,303.572 181.021 L 304.372 185.150 325.432 193.104 L 346.492 201.057 345.140 201.624 C 344.397 201.935,334.886 205.560,324.005 209.680 L 304.222 217.169 303.988 218.981 C 303.859 219.978,303.424 222.215,303.019 223.952 L 302.285 227.112 303.508 228.181 C 307.153 231.370,333.739 256.687,333.593 256.833 C 333.499 256.927,328.221 256.826,321.865 256.607 C 315.509 256.389,307.216 256.128,303.436 256.027 C 299.656 255.927,295.203 255.758,293.540 255.654 L 290.516 255.463 288.526 258.601 C 281.091 270.330,269.201 282.235,257.247 289.920 L 254.097 291.946 254.096 295.136 C 254.096 296.890,254.344 305.700,254.647 314.714 C 254.950 323.727,255.149 332.041,255.088 333.189 L 254.978 335.276 240.229 319.621 C 232.118 311.010,225.298 303.984,225.075 304.008 C 224.716 304.046,218.055 305.346,216.211 305.738 C 215.634 305.861,214.080 309.672,207.599 326.857 C 203.250 338.391,199.641 347.776,199.579 347.715 C 199.517 347.653,195.978 338.446,191.715 327.256 C 182.536 303.166,183.731 305.704,181.423 305.398 C 180.398 305.262,178.257 304.847,176.665 304.476 L 173.770 303.801 170.459 307.231 C 168.639 309.117,161.966 316.132,155.631 322.819 C 149.296 329.507,143.997 335.019,143.856 335.068 C 143.714 335.118,143.643 334.008,143.697 332.601 C 144.089 322.376,144.846 297.644,144.846 295.033 L 144.846 291.836 140.176 288.675 C 128.173 280.549,117.680 269.729,110.121 257.684 L 108.722 255.456 102.555 255.672 C 78.205 256.525,65.773 256.904,65.664 256.795 C 65.558 256.689,90.528 232.992,95.433 228.544 L 96.990 227.132 96.559 225.549 C 96.321 224.677,95.860 222.458,95.534 220.617 L 94.941 217.269 74.519 209.451 C 54.021 201.605,52.755 201.013,54.872 200.259 C 57.300 199.394,94.637 185.293,94.729 185.206 C 95.244 184.721,96.828 174.928,96.441 174.626 C 92.664 171.682,65.574 145.354,66.224 145.258 C 66.659 145.194,73.783 145.392,82.054 145.698 C 90.325 146.003,99.709 146.346,102.907 146.460 L 108.722 146.667 111.610 142.320 C 119.095 131.055,130.297 119.886,141.170 112.850 C 144.666 110.587,144.825 110.430,144.835 109.236 C 144.841 108.549,144.448 98.811,143.961 87.595 C 143.474 76.379,143.135 67.144,143.206 67.073 C 143.278 67.001,150.033 74.004,158.218 82.634 C 166.402 91.265,173.204 98.330,173.333 98.334 C 173.463 98.339,175.814 97.905,178.558 97.371 L 183.548 96.399 191.390 75.336 C 195.704 63.752,199.327 54.273,199.443 54.273 C 199.558 54.273,203.234 63.738,207.611 75.307 " stroke="none" fill="#fbfbfb" fill-rule="evenodd"></path><path id="path3" d="M189.962 79.207 C 179.344 107.749,180.233 105.570,179.447 104.963 C 178.895 104.537,178.894 104.554,179.432 105.204 C 179.925 105.801,163.199 152.412,159.697 160.199 C 159.237 161.222,130.824 171.970,130.399 171.282 C 130.183 170.932,130.086 170.967,129.992 171.431 C 129.900 171.881,125.032 173.858,111.189 179.066 C 55.241 200.114,53.890 200.636,53.993 201.138 C 54.058 201.450,68.422 207.112,91.982 216.112 C 112.819 224.072,129.947 230.681,130.044 230.799 C 130.141 230.917,130.458 231.034,130.749 231.060 C 131.226 231.101,158.944 241.636,159.139 241.849 C 159.184 241.898,168.217 265.568,179.212 294.449 C 190.207 323.330,199.310 347.160,199.441 347.404 C 199.610 347.720,223.685 285.063,228.896 270.741 C 229.089 270.212,231.645 263.436,234.576 255.683 L 239.906 241.586 291.928 221.836 C 320.540 210.973,344.544 201.871,345.269 201.608 C 346.411 201.196,346.495 201.095,345.894 200.862 C 344.046 200.146,269.275 171.903,255.683 166.787 C 247.154 163.577,240.092 160.822,239.988 160.666 C 239.885 160.509,230.767 136.507,219.728 107.327 C 208.688 78.147,199.561 54.273,199.447 54.273 C 199.332 54.273,195.064 65.493,189.962 79.207 M219.220 113.062 L 237.655 161.807 233.101 166.390 C 230.596 168.912,222.242 177.167,214.537 184.737 L 200.529 198.500 200.529 131.262 C 200.529 94.281,200.587 64.090,200.657 64.170 C 200.728 64.251,209.082 86.252,219.220 113.062 M220.776 103.700 L 219.383 105.198 220.881 103.805 C 222.274 102.510,222.541 102.203,222.274 102.203 C 222.217 102.203,221.543 102.877,220.776 103.700 M144.935 112.247 C 144.939 113.022,145.011 113.298,145.095 112.859 C 145.179 112.421,145.176 111.787,145.088 111.450 C 145.000 111.113,144.931 111.471,144.935 112.247 M253.845 112.599 C 253.848 113.568,253.916 113.923,253.997 113.387 C 254.078 112.852,254.076 112.059,253.993 111.625 C 253.909 111.192,253.843 111.630,253.845 112.599 M145.294 120.529 C 145.294 121.401,145.363 121.758,145.447 121.322 C 145.531 120.885,145.531 120.172,145.447 119.736 C 145.363 119.300,145.294 119.656,145.294 120.529 M253.493 121.762 C 253.496 122.731,253.564 123.086,253.645 122.550 C 253.726 122.015,253.724 121.222,253.640 120.788 C 253.557 120.355,253.490 120.793,253.493 121.762 M145.663 128.106 C 145.711 128.584,146.016 128.829,146.612 128.868 C 147.347 128.917,147.364 128.899,146.718 128.759 C 146.293 128.666,145.866 128.323,145.769 127.996 C 145.641 127.568,145.611 127.598,145.663 128.106 M110.754 146.861 C 111.289 146.942,112.082 146.940,112.516 146.856 C 112.949 146.772,112.511 146.706,111.542 146.709 C 110.573 146.711,110.218 146.780,110.754 146.861 M120.622 147.213 C 121.157 147.294,121.950 147.292,122.384 147.208 C 122.817 147.125,122.379 147.059,121.410 147.061 C 120.441 147.064,120.086 147.132,120.622 147.213 M278.150 147.570 C 278.877 147.646,280.066 147.646,280.793 147.570 C 281.520 147.493,280.925 147.431,279.471 147.431 C 278.018 147.431,277.423 147.493,278.150 147.570 M353.641 154.644 C 349.378 157.327,351.107 163.994,356.065 163.994 C 362.529 163.994,363.028 154.585,356.589 154.108 C 355.174 154.004,354.451 154.135,353.641 154.644 M358.978 156.264 C 360.980 158.267,360.440 161.407,357.884 162.620 C 354.700 164.131,351.308 161.087,352.421 157.716 C 353.369 154.841,356.796 154.083,358.978 156.264 M355.330 156.930 C 352.872 157.755,352.168 158.849,354.361 158.437 C 355.078 158.303,355.595 158.348,355.595 158.546 C 355.595 158.732,355.690 159.132,355.805 159.434 C 355.946 159.802,355.713 160.122,355.101 160.401 C 354.150 160.834,353.840 161.762,354.646 161.762 C 354.900 161.762,355.415 161.529,355.792 161.245 C 356.168 160.960,356.892 160.722,357.402 160.716 C 358.931 160.698,359.320 159.896,358.726 157.983 C 358.114 156.012,358.091 156.005,355.330 156.930 M357.848 158.090 C 358.233 159.094,358.073 159.648,357.398 159.648 C 356.745 159.648,356.148 158.416,356.514 157.824 C 356.814 157.338,357.621 157.498,357.848 158.090 M179.028 181.938 L 197.075 200.176 130.549 200.176 C 93.960 200.176,64.109 200.091,64.213 199.987 C 64.727 199.473,160.232 163.295,160.579 163.483 C 160.800 163.602,169.102 171.907,179.028 181.938 M101.145 179.141 C 101.145 179.202,101.661 179.717,102.291 180.286 L 103.436 181.322 102.401 180.176 C 101.436 179.109,101.145 178.869,101.145 179.141 M336.068 202.199 C 335.925 202.343,314.052 210.729,287.463 220.835 L 239.119 239.209 220.705 220.839 C 210.577 210.736,202.291 202.350,202.291 202.204 C 202.291 202.058,232.449 201.938,269.310 201.938 C 306.170 201.938,336.212 202.056,336.068 202.199 M198.717 285.433 C 198.744 314.395,198.649 337.974,198.506 337.830 C 198.363 337.687,189.980 315.818,179.878 289.233 L 161.511 240.897 179.874 222.288 L 198.238 203.680 198.453 218.227 C 198.571 226.229,198.690 256.471,198.717 285.433 M297.445 222.489 C 297.445 222.550,297.960 223.065,298.590 223.635 L 299.736 224.670 298.701 223.524 C 297.736 222.457,297.445 222.217,297.445 222.489 M99.890 224.229 L 98.855 225.374 100.000 224.339 C 101.068 223.374,101.307 223.084,101.035 223.084 C 100.974 223.084,100.459 223.599,99.890 224.229 M123.436 255.054 C 123.969 255.135,124.841 255.135,125.374 255.054 C 125.907 254.973,125.471 254.907,124.405 254.907 C 123.339 254.907,122.903 254.973,123.436 255.054 M112.341 255.410 C 112.975 255.488,113.926 255.486,114.456 255.406 C 114.985 255.326,114.467 255.261,113.304 255.263 C 112.141 255.265,111.708 255.331,112.341 255.410 M281.152 255.410 C 281.785 255.488,282.737 255.486,283.266 255.406 C 283.796 255.326,283.278 255.261,282.115 255.263 C 280.952 255.265,280.518 255.331,281.152 255.410 M145.299 281.762 C 145.302 282.731,145.370 283.086,145.451 282.550 C 145.532 282.015,145.530 281.222,145.446 280.788 C 145.363 280.355,145.296 280.793,145.299 281.762 M253.498 281.938 C 253.498 283.004,253.564 283.441,253.644 282.907 C 253.725 282.374,253.725 281.502,253.644 280.969 C 253.564 280.436,253.498 280.872,253.498 281.938 M178.659 298.414 L 177.445 299.736 178.767 298.521 C 179.997 297.391,180.250 297.093,179.981 297.093 C 179.922 297.093,179.327 297.687,178.659 298.414 M221.322 299.670 C 221.322 299.730,221.837 300.246,222.467 300.815 L 223.612 301.850 222.577 300.705 C 221.612 299.637,221.322 299.397,221.322 299.670 " stroke="none" fill="#73241c" fill-rule="evenodd"></path><path id="path4" d="M185.551 3.755 C 166.400 5.278,152.537 7.950,138.063 12.906 C 58.271 40.229,3.877 113.828,3.877 194.468 C 3.877 211.180,10.224 221.447,30.319 237.235 C 48.442 251.474,54.177 258.232,62.873 275.595 C 71.329 292.476,81.699 305.783,96.035 318.151 C 115.098 334.596,142.660 349.265,161.711 353.105 C 225.379 365.938,283.607 346.326,320.980 299.462 C 329.216 289.134,337.874 275.308,341.118 267.305 C 343.097 262.421,346.201 258.248,352.122 252.511 C 356.285 248.477,357.724 247.243,368.789 238.219 C 385.718 224.412,392.824 215.319,395.349 204.235 C 396.195 200.523,396.169 181.130,395.309 174.097 C 386.971 105.920,340.180 44.999,276.116 18.910 C 248.123 7.510,212.753 1.591,185.551 3.755 M195.944 17.730 C 200.352 19.989,201.229 27.901,197.326 30.206 C 196.040 30.966,196.046 31.081,197.398 31.680 C 198.946 32.365,199.730 34.383,200.140 38.735 C 200.365 41.133,200.668 42.565,201.033 42.969 C 202.071 44.116,201.706 44.405,199.207 44.410 C 197.899 44.413,196.482 44.508,196.058 44.621 C 195.123 44.872,194.687 43.579,194.325 39.471 C 193.862 34.223,193.156 33.695,187.137 34.108 L 183.436 34.361 183.438 36.123 C 183.440 37.093,183.556 39.567,183.696 41.623 L 183.952 45.360 181.257 45.588 C 179.775 45.713,178.471 45.725,178.361 45.615 C 178.178 45.432,176.226 17.915,176.381 17.708 C 176.568 17.461,190.424 16.641,192.247 16.769 C 193.502 16.858,195.004 17.248,195.944 17.730 M226.494 18.356 C 228.011 18.567,229.293 18.780,229.343 18.831 C 229.484 18.969,235.066 46.952,235.066 47.518 C 235.066 47.917,234.616 47.963,232.705 47.759 C 228.938 47.355,228.922 47.342,228.433 44.200 C 228.199 42.692,227.946 41.396,227.871 41.321 C 227.724 41.175,219.038 39.845,218.139 39.832 C 217.814 39.827,217.070 40.894,216.270 42.510 L 214.941 45.196 213.109 44.965 C 209.369 44.492,208.930 44.357,209.158 43.745 C 210.227 40.881,222.657 17.984,223.146 17.979 C 223.471 17.976,224.978 18.146,226.494 18.356 M186.960 21.723 C 185.797 21.792,184.307 21.940,183.649 22.051 L 182.452 22.254 182.668 25.799 C 182.932 30.130,182.397 29.742,187.513 29.320 C 192.306 28.924,193.408 28.441,193.969 26.484 C 194.972 22.984,192.622 21.388,186.960 21.723 M255.761 24.888 C 257.235 25.424,258.374 26.055,258.467 26.387 C 258.555 26.702,259.363 31.480,260.261 37.004 C 261.159 42.529,261.976 47.286,262.076 47.577 C 262.176 47.868,263.731 44.096,265.532 39.194 C 267.333 34.293,268.903 30.186,269.021 30.068 C 269.418 29.671,274.016 31.600,273.901 32.115 C 273.811 32.522,264.642 57.816,264.498 58.054 C 264.320 58.350,258.996 56.106,258.874 55.683 C 258.790 55.392,257.907 50.319,256.912 44.409 C 255.918 38.500,255.051 33.612,254.987 33.548 C 254.861 33.422,254.795 33.593,250.752 44.638 L 248.023 52.096 245.420 51.160 C 243.989 50.645,242.858 50.122,242.907 49.998 C 242.956 49.874,245.131 43.966,247.740 36.869 C 250.350 29.772,252.650 23.964,252.850 23.963 C 253.051 23.962,254.361 24.378,255.761 24.888 M222.425 29.876 L 219.869 35.066 223.326 35.613 C 225.228 35.914,226.829 36.134,226.883 36.102 C 226.998 36.033,225.231 24.937,225.081 24.787 C 225.026 24.732,223.830 27.022,222.425 29.876 M134.607 39.559 C 136.631 44.841,138.489 49.663,138.737 50.274 L 139.187 51.384 145.453 48.952 C 148.899 47.615,151.888 46.584,152.096 46.661 C 152.620 46.856,154.094 50.812,153.755 51.111 C 153.331 51.485,135.656 58.241,135.503 58.087 C 135.246 57.830,125.412 32.004,125.527 31.888 C 125.717 31.698,130.191 30.007,130.574 29.980 C 130.769 29.967,132.584 34.278,134.607 39.559 M296.101 43.225 C 302.872 45.347,307.162 52.016,305.532 57.885 C 305.073 59.538,304.809 59.532,302.215 57.807 C 300.191 56.461,300.117 56.359,300.212 55.034 C 300.580 49.949,294.668 46.311,289.837 48.649 C 286.857 50.092,283.427 54.907,282.820 58.500 C 281.746 64.856,290.223 69.500,294.893 65.113 L 295.699 64.356 293.048 62.647 C 289.971 60.665,290.095 60.972,291.490 58.797 C 292.861 56.662,292.347 56.557,297.947 60.116 L 302.705 63.140 301.778 64.610 C 293.973 76.989,294.732 76.126,292.754 74.874 L 291.182 73.880 291.846 72.329 C 292.684 70.374,292.707 70.453,291.423 70.900 C 288.410 71.951,284.166 70.728,281.024 67.903 C 270.617 58.546,282.568 38.983,296.101 43.225 M117.181 52.987 C 122.802 57.423,127.529 61.170,127.686 61.314 C 127.843 61.458,126.769 62.324,125.300 63.240 L 122.629 64.904 120.376 63.076 C 119.136 62.070,118.019 61.247,117.893 61.248 C 117.382 61.248,109.256 66.457,109.256 66.784 C 109.256 66.978,109.548 68.355,109.905 69.845 L 110.553 72.553 108.228 74.012 C 106.949 74.815,105.760 75.499,105.585 75.533 C 105.336 75.581,98.590 46.848,98.802 46.646 C 98.831 46.619,100.115 45.791,101.656 44.808 L 104.457 43.019 105.709 43.970 C 106.397 44.493,111.559 48.550,117.181 52.987 M105.143 50.966 C 105.252 51.331,105.754 53.295,106.258 55.330 C 106.763 57.366,107.330 59.619,107.518 60.339 L 107.861 61.647 110.406 60.026 C 111.806 59.135,113.147 58.226,113.386 58.006 C 113.722 57.699,112.960 56.881,110.065 54.442 C 105.123 50.277,104.888 50.112,105.143 50.966 M213.590 53.414 C 325.642 64.057,385.579 191.264,322.429 284.405 C 258.754 378.320,116.573 368.435,66.445 266.608 C 15.346 162.807,98.400 42.472,213.590 53.414 M84.001 68.819 L 86.652 78.254 90.198 82.019 C 94.379 86.458,94.192 85.749,91.803 88.109 L 89.862 90.026 85.900 86.114 L 81.938 82.202 72.952 79.472 C 68.009 77.970,63.830 76.663,63.665 76.566 C 63.245 76.320,67.701 71.893,68.360 71.901 C 68.656 71.905,71.555 72.921,74.802 74.159 C 78.048 75.398,80.705 76.291,80.705 76.144 C 80.705 75.996,79.752 73.141,78.587 69.798 L 76.469 63.721 78.851 61.501 C 80.161 60.280,81.260 59.304,81.292 59.332 C 81.324 59.360,82.543 63.629,84.001 68.819 M329.347 69.569 L 336.740 76.759 334.992 78.555 L 333.244 80.351 328.093 75.242 C 322.129 69.325,322.795 69.597,320.349 72.074 L 318.431 74.016 323.273 78.867 L 328.114 83.718 326.344 85.462 L 324.573 87.206 319.903 82.546 C 314.413 77.067,315.130 77.266,312.061 80.378 L 309.604 82.872 315.242 88.287 L 320.881 93.703 319.119 95.481 L 317.357 97.258 309.691 89.833 L 302.026 82.408 311.806 72.399 C 317.185 66.895,321.669 62.388,321.770 62.385 C 321.872 62.382,325.282 65.614,329.347 69.569 M351.049 95.207 C 355.928 102.509,356.350 103.363,356.350 105.921 C 356.350 111.470,350.848 115.082,345.639 112.952 C 345.111 112.736,345.022 112.907,345.022 114.135 C 345.022 115.950,343.849 117.351,340.051 120.070 C 338.191 121.401,337.183 122.382,336.931 123.105 L 336.558 124.174 334.643 121.387 C 332.394 118.115,332.268 118.478,336.791 115.187 C 339.912 112.917,340.700 111.742,340.121 110.219 C 339.445 108.441,335.744 103.229,335.283 103.406 C 335.034 103.501,332.938 104.847,330.626 106.396 L 326.422 109.213 324.829 106.818 L 323.237 104.423 334.746 96.636 C 341.076 92.354,346.372 88.841,346.515 88.830 C 346.658 88.819,348.698 91.689,351.049 95.207 M60.369 91.097 C 73.276 94.459,77.964 107.114,69.450 115.614 C 60.414 124.636,42.422 115.394,44.454 102.775 C 45.751 94.721,53.225 89.237,60.369 91.097 M343.421 97.730 C 342.250 98.542,340.914 99.479,340.452 99.812 L 339.612 100.417 341.959 103.941 C 343.249 105.879,344.707 107.728,345.199 108.050 C 347.292 109.422,350.837 107.376,350.765 104.837 C 350.733 103.703,346.331 96.189,345.727 96.238 C 345.630 96.246,344.592 96.917,343.421 97.730 M53.407 97.366 C 47.197 100.883,48.965 108.659,56.889 112.674 C 65.824 117.202,72.627 107.010,65.154 100.291 C 61.198 96.735,56.560 95.580,53.407 97.366 M365.688 123.724 C 372.215 126.884,374.201 137.870,369.064 142.392 C 366.977 144.230,366.864 144.194,365.699 141.318 L 364.703 138.856 365.739 137.819 C 369.351 134.207,364.333 125.578,360.639 129.048 C 359.641 129.986,359.590 131.430,360.381 136.303 C 361.714 144.503,360.802 147.426,356.398 149.074 C 350.780 151.176,345.807 148.046,343.384 140.884 C 341.531 135.406,342.472 131.326,346.220 128.583 C 348.031 127.258,347.938 127.210,349.053 130.052 L 350.024 132.526 348.757 133.929 C 345.280 137.778,350.733 147.055,354.479 143.665 C 355.540 142.705,355.615 141.392,354.878 136.692 C 353.995 131.063,353.997 128.893,354.889 127.051 C 356.578 123.561,361.940 121.910,365.688 123.724 M40.300 124.081 C 42.263 124.626,44.682 127.158,44.972 128.971 C 45.238 130.635,45.194 130.616,46.514 129.640 C 47.858 128.647,50.220 128.885,54.097 130.405 C 56.228 131.240,57.239 131.459,58.238 131.302 C 58.965 131.187,59.559 131.144,59.559 131.205 C 59.559 131.267,59.019 132.657,58.358 134.293 C 56.956 137.765,57.146 137.713,52.224 135.976 C 46.669 134.015,46.442 134.168,43.394 141.909 L 42.677 143.729 47.682 145.730 C 50.435 146.830,52.731 147.773,52.784 147.824 C 53.010 148.043,50.895 152.952,50.574 152.952 C 50.117 152.953,25.291 143.061,24.912 142.728 C 24.416 142.291,30.346 128.022,31.666 126.475 C 33.840 123.927,36.795 123.108,40.300 124.081 M124.888 127.681 C 125.001 128.496,126.218 138.361,127.591 149.604 C 130.402 172.617,130.257 171.639,130.844 171.605 C 131.082 171.591,137.621 169.173,145.374 166.230 L 159.471 160.881 164.827 146.608 C 167.773 138.758,170.192 132.170,170.202 131.969 C 170.213 131.749,165.141 131.010,157.445 130.110 C 133.547 127.316,127.050 126.547,125.865 126.373 L 124.682 126.200 124.888 127.681 M264.670 127.379 C 259.533 128.004,249.423 129.215,242.203 130.071 C 234.982 130.926,229.075 131.722,229.075 131.840 C 229.075 132.110,239.921 160.751,240.068 160.870 C 240.442 161.172,268.920 171.725,269.034 171.604 C 269.113 171.521,269.830 165.903,270.628 159.119 C 273.695 133.041,274.162 129.117,274.368 127.665 C 274.485 126.841,274.452 126.184,274.295 126.205 C 274.137 126.225,269.806 126.754,264.670 127.379 M35.216 130.519 C 34.207 131.528,31.181 138.831,31.615 139.209 C 32.013 139.554,37.452 141.678,37.935 141.676 C 38.564 141.673,41.237 134.658,41.235 133.013 C 41.232 130.155,37.236 128.499,35.216 130.519 M359.721 155.504 C 362.927 158.710,360.651 163.994,356.065 163.994 C 351.107 163.994,349.378 157.327,353.641 154.644 C 355.412 153.530,358.132 153.915,359.721 155.504 M353.729 155.776 C 351.786 157.305,351.671 160.362,353.498 161.899 C 356.380 164.324,360.176 162.533,360.176 158.749 C 360.176 155.790,356.101 153.911,353.729 155.776 M358.726 157.983 C 359.320 159.896,358.931 160.698,357.402 160.716 C 356.892 160.722,356.168 160.960,355.792 161.245 C 355.415 161.529,354.900 161.762,354.646 161.762 C 353.840 161.762,354.150 160.834,355.101 160.401 C 355.713 160.122,355.946 159.802,355.805 159.434 C 355.690 159.132,355.595 158.732,355.595 158.546 C 355.595 158.348,355.078 158.303,354.361 158.437 C 352.168 158.849,352.872 157.755,355.330 156.930 C 358.091 156.005,358.114 156.012,358.726 157.983 M356.514 157.824 C 356.148 158.416,356.745 159.648,357.398 159.648 C 358.073 159.648,358.233 159.094,357.848 158.090 C 357.621 157.498,356.814 157.338,356.514 157.824 M254.316 236.068 L 239.910 241.586 234.495 255.859 C 231.516 263.709,229.079 270.301,229.077 270.507 C 229.076 270.739,233.497 271.379,240.617 272.179 C 246.965 272.893,257.132 274.041,263.211 274.731 C 269.290 275.421,274.312 275.937,274.369 275.878 C 274.427 275.819,273.938 271.172,273.282 265.551 C 272.627 259.930,271.451 249.862,270.671 243.179 C 269.890 236.496,269.251 230.906,269.251 230.756 C 269.251 230.339,269.593 230.217,254.316 236.068 M130.250 231.241 C 130.166 231.503,129.456 237.031,128.672 243.524 C 127.887 250.018,126.675 259.906,125.978 265.498 C 125.282 271.090,124.770 275.724,124.841 275.796 C 124.912 275.867,129.800 275.380,135.701 274.713 C 141.603 274.047,151.744 272.915,158.238 272.198 C 164.731 271.481,170.080 270.872,170.123 270.845 C 170.201 270.797,159.303 242.024,159.140 241.849 C 159.095 241.800,152.886 239.395,145.344 236.505 C 137.801 233.616,131.354 231.142,131.016 231.008 C 130.635 230.856,130.345 230.944,130.250 231.241 " stroke="none" fill="#e30404" fill-rule="evenodd"></path></g></svg>